<svg width="1031" height="201" viewBox="0 0 1031 201" fill="none" xmlns="http://www.w3.org/2000/svg">
<g clip-path="url(#clip0_177_1116)">
<path d="M52.4765 29.1886C52.3529 28.727 51.8784 28.4527 51.4164 28.5765C50.9543 28.7003 50.6811 29.1749 50.8048 29.6365C52.2947 35.1972 49.7256 40.9329 44.6726 43.5331L43.9881 40.9783C48.0107 38.7039 50.1586 33.9142 48.9085 29.2485L45.5486 16.7094C44.0665 11.178 38.361 7.8835 32.8295 9.36565C27.2976 10.8479 24.0037 16.5538 25.4859 22.0852L28.8457 34.6243C30.0958 39.29 34.3514 42.3639 38.9723 42.3223L39.6568 44.8771C33.9798 45.152 28.8882 41.47 27.3978 35.9079C27.2741 35.4463 26.7998 35.1725 26.3378 35.2963C25.8757 35.4201 25.6024 35.8943 25.726 36.3558C27.4621 42.8349 33.4748 47.0806 40.1135 46.5814L40.6253 48.4914L37.2812 49.3874C34.9771 50.0048 33.604 52.3824 34.2215 54.6871C34.3452 55.1487 34.8195 55.4225 35.2815 55.2987L53.6725 50.3708C54.1346 50.247 54.408 49.7728 54.2843 49.3113C53.6667 47.0066 51.2893 45.634 48.9846 46.2515L45.6411 47.1474L45.1292 45.237C51.1276 42.35 54.2121 35.6657 52.4765 29.1886ZM30.7836 35.0012L34.9217 33.8924C35.3837 33.7686 35.6574 33.2938 35.5338 32.8322C35.4101 32.3706 34.9358 32.0968 34.4737 32.2206L30.294 33.3406L29.622 30.8327L33.8017 29.7127C34.2638 29.5889 34.5375 29.1141 34.4138 28.6525C34.2901 28.191 33.8157 27.9166 33.3536 28.0405L29.174 29.1604L28.5021 26.653L32.6818 25.533C33.1439 25.4092 33.4176 24.9345 33.2939 24.4729C33.1702 24.0113 32.6958 23.737 32.2337 23.8608L28.054 24.9807L27.382 22.4728L31.5617 21.3529C32.0238 21.2291 32.2976 20.7548 32.1739 20.2932C32.0502 19.8316 31.5758 19.5573 31.1138 19.6811L26.9757 20.7899C26.2663 16.4587 28.9506 12.1973 33.2776 11.0379C37.6046 9.87849 42.0599 12.2268 43.6112 16.3324L39.4731 17.4412C39.0111 17.565 38.7374 18.0398 38.861 18.5014C38.9847 18.963 39.459 19.2368 39.9211 19.113L44.1008 17.993L44.7728 20.5009L40.5931 21.6209C40.131 21.7447 39.8573 22.2195 39.981 22.6811C40.1047 23.1426 40.5791 23.417 41.0412 23.2931L45.2208 22.1732L45.8927 24.6806L41.713 25.8006C41.2509 25.9244 40.9772 26.3991 41.1009 26.8607C41.2246 27.3223 41.699 27.5966 42.1611 27.4728L46.3408 26.3529L47.0128 28.8608L42.8331 29.9807C42.371 30.1045 42.0972 30.5788 42.2209 31.0404C42.3446 31.502 42.819 31.7763 43.281 31.6525L47.4191 30.5437C48.0445 34.3607 46.0326 38.1214 42.5846 39.7548L42.5832 39.7552C42.1187 39.9751 41.6305 40.1582 41.1172 40.2957C36.7902 41.4551 32.3349 39.1068 30.7836 35.0012ZM49.4326 47.9233C50.5227 47.6312 51.6394 48.081 52.2456 48.9619L35.8124 53.3651C35.8969 52.2992 36.6395 51.3512 37.7292 51.0592L41.9089 49.9393C42.3709 49.8155 42.6448 49.3412 42.5211 48.8796L40.719 42.1542C41.0007 42.1033 41.2831 42.0436 41.5648 41.9681C41.8465 41.8926 42.121 41.8032 42.3908 41.7062L44.1929 48.4316C44.3165 48.8932 44.7908 49.167 45.2529 49.0432L49.4326 47.9233Z" fill="#8F8953"/>
<path d="M40.8569 7.32308C41.6328 7.34283 42.3574 7.59623 42.9537 8.05575C43.5559 8.51987 43.9883 9.1633 44.2024 9.91647C44.3321 10.3718 44.8032 10.6378 45.2591 10.5156L45.272 10.5122C45.7312 10.3814 45.9981 9.90235 45.8672 9.44268C45.5507 8.33039 44.9087 7.37708 44.0112 6.68502C43.1216 5.99956 42.0453 5.62198 40.901 5.5933C40.4241 5.58162 40.027 5.95924 40.0139 6.43647C40.0019 6.91392 40.3795 7.31106 40.8569 7.32308Z" fill="#8F8953"/>
<path d="M46.1315 3.93182C44.5419 2.70796 42.5607 2.06068 40.5532 2.10899C40.0764 2.12241 39.6977 2.51714 39.7095 2.99539C39.7211 3.47316 40.1182 3.85123 40.5955 3.83972C42.2315 3.79971 43.78 4.30556 45.0747 5.3029C46.2892 6.23864 47.149 7.52066 47.5624 9.00995C47.6893 9.46813 48.1613 9.73743 48.6201 9.61452L48.6272 9.61259C49.0878 9.48508 49.3579 9.00822 49.2302 8.54717C48.7163 6.69416 47.6447 5.09822 46.1315 3.93182Z" fill="#8F8953"/>
<path d="M14.7521 9.99202L12.9491 13.1169C12.7099 13.5307 12.8517 14.0602 13.2658 14.2989C13.4727 14.4183 13.7084 14.4428 13.9222 14.3855C14.136 14.3282 14.3284 14.189 14.4478 13.9822L16.2513 10.8572C16.4901 10.4435 16.3482 9.914 15.9345 9.67519C15.5204 9.4365 14.9914 9.57826 14.7521 9.99202Z" fill="#8F8953"/>
<path d="M11.1444 16.2415L9.34052 19.3667C9.10122 19.7805 9.24298 20.3095 9.65722 20.5487C9.86404 20.6681 10.0998 20.6926 10.3136 20.6353C10.5274 20.578 10.7198 20.4388 10.8392 20.232L12.6431 17.1068C12.8824 16.693 12.7406 16.164 12.3264 15.9248C11.9128 15.686 11.3837 15.8277 11.1444 16.2415Z" fill="#8F8953"/>
<path d="M8.54122 11.6562C8.12759 11.4174 7.59807 11.5593 7.35926 11.9729C7.12009 12.3871 7.26185 12.9162 7.67596 13.1549L10.8008 14.9594C11.0081 15.0787 11.2438 15.1032 11.4576 15.0459C11.6715 14.9886 11.8634 14.8495 11.9828 14.6427C12.2219 14.2284 12.0802 13.6994 11.6661 13.4607L8.54122 11.6562Z" fill="#8F8953"/>
<path d="M14.7914 15.2643C14.3773 15.0256 13.8483 15.1674 13.6095 15.581C13.3702 15.9948 13.5121 16.5243 13.9262 16.763L17.0501 18.5678C17.2574 18.6871 17.4931 18.7116 17.7069 18.6543C17.9207 18.597 18.1126 18.4579 18.2325 18.2509C18.4713 17.8373 18.3294 17.3078 17.9158 17.069L14.7914 15.2643Z" fill="#8F8953"/>
<path d="M11.455 36.5961C9.61056 37.0903 8.51292 38.9922 9.00702 40.8361C9.50098 42.6796 11.4025 43.7779 13.247 43.2837C15.0909 42.7896 16.1886 40.8877 15.6946 39.0442C15.2005 37.2002 13.299 36.102 11.455 36.5961ZM12.799 41.6119C11.8773 41.8589 10.9258 41.3099 10.6788 40.3882C10.4317 39.466 10.9813 38.5153 11.9031 38.2683C12.8244 38.0215 13.7757 38.5699 14.0228 39.4922C14.2698 40.4139 13.7203 41.365 12.799 41.6119Z" fill="#8F8953"/>
<path d="M18.971 27.8626C19.1566 28.5553 18.7455 29.2673 18.0529 29.4529C17.3602 29.6385 16.6487 29.2273 16.4631 28.5346C16.2775 27.842 16.6882 27.1306 17.3809 26.945C18.0735 26.7594 18.7854 27.17 18.971 27.8626Z" fill="#8F8953"/>
</g>
<g clip-path="url(#clip1_177_1116)">
<path d="M986.686 148.274L988.196 148.678L987.792 150.189L986.281 149.784L986.686 148.274Z" fill="#8F8953"/>
<path d="M989.707 149.083L991.217 149.488L990.812 150.998L989.302 150.593L989.707 149.083Z" fill="#8F8953"/>
<path d="M992.728 149.893L994.238 150.297L993.833 151.808L992.323 151.403L992.728 149.893Z" fill="#8F8953"/>
<path d="M994.48 158.456L985.418 156.028C985.217 155.974 985.004 156.003 984.824 156.106C984.645 156.21 984.514 156.381 984.46 156.581L982.437 164.133C982.383 164.333 982.411 164.546 982.515 164.726C982.618 164.906 982.789 165.037 982.989 165.09L992.052 167.519C992.252 167.572 992.465 167.544 992.645 167.44C992.825 167.337 992.956 167.166 993.009 166.966L995.033 159.414C995.086 159.214 995.058 159 994.955 158.821C994.851 158.641 994.68 158.51 994.48 158.456ZM991.701 165.806L984.149 163.782L985.768 157.741L993.32 159.764L991.701 165.806Z" fill="#8F8953"/>
<path d="M998.256 159.468L1001.28 160.277L1000.87 161.787L997.851 160.978L998.256 159.468Z" fill="#8F8953"/>
<path d="M1002.79 160.682L1014.87 163.919L1014.47 165.43L1002.38 162.192L1002.79 160.682Z" fill="#8F8953"/>
<path d="M997.446 162.488L1014.06 166.94L1013.66 168.45L997.042 163.999L997.446 162.488Z" fill="#8F8953"/>
<path d="M996.637 165.509L1004.19 167.533L1003.78 169.043L996.232 167.02L996.637 165.509Z" fill="#8F8953"/>
<path d="M1005.7 167.938L1010.23 169.152L1009.83 170.662L1005.29 169.448L1005.7 167.938Z" fill="#8F8953"/>
<path d="M981.425 167.908L991.997 170.741L991.593 172.252L981.02 169.419L981.425 167.908Z" fill="#8F8953"/>
<path d="M980.615 170.929L991.188 173.762L990.783 175.272L980.21 172.44L980.615 170.929Z" fill="#8F8953"/>
<path d="M979.806 173.95L990.379 176.783L989.974 178.293L979.401 175.46L979.806 173.95Z" fill="#8F8953"/>
<path d="M978.997 176.971L989.569 179.804L989.165 181.314L978.592 178.481L978.997 176.971Z" fill="#8F8953"/>
<path d="M1023.36 165.459C1022.88 164.967 1022.27 164.614 1021.61 164.439C1020.94 164.263 1020.24 164.272 1019.58 164.464L1021.63 156.827C1021.79 156.226 1021.7 155.585 1021.39 155.047C1021.08 154.508 1020.57 154.115 1019.97 153.954L985.23 144.646C984.629 144.485 983.988 144.569 983.45 144.88C982.911 145.191 982.518 145.703 982.357 146.304L973.049 181.043C972.888 181.644 972.972 182.284 973.283 182.823C973.594 183.361 974.106 183.755 974.707 183.916L1009.45 193.224C1010.05 193.385 1010.69 193.3 1011.23 192.989C1011.76 192.678 1012.16 192.166 1012.32 191.565L1015.81 178.539L1023.36 170.987C1024.09 170.254 1024.5 169.259 1024.5 168.223C1024.5 167.187 1024.09 166.193 1023.36 165.459ZM1002.29 183.212L994.1 181.018L996.124 173.466L1006.93 176.361L1004.01 179.28C1003.9 179.389 1003.83 179.528 1003.8 179.679L1003.29 182.214L1002.29 183.212ZM1002.91 184.808L1004.01 183.703L1005.12 184.808L1004.01 185.914C1003.86 186.059 1003.67 186.14 1003.46 186.139C1003.25 186.139 1003.06 186.056 1002.91 185.91C1002.76 185.764 1002.68 185.566 1002.68 185.36C1002.68 185.154 1002.76 184.955 1002.91 184.808ZM1006.48 183.959L1004.86 182.339L1005.23 180.496L1008.32 183.591L1006.48 183.959ZM1009.54 182.594L1008.43 181.488L1016.73 173.196L1015.62 172.09L1007.33 180.383L1006.22 179.277L1015.62 169.879L1018.94 173.197L1009.54 182.594ZM1016.72 168.773L1017.28 168.221L1020.6 171.538L1020.04 172.091L1016.72 168.773ZM984.825 146.156L1019.56 155.464C1019.76 155.518 1019.93 155.649 1020.04 155.829C1020.14 156.008 1020.17 156.222 1020.12 156.422L1019.1 160.222L982.849 150.509L983.867 146.709C983.921 146.509 984.052 146.338 984.232 146.234C984.411 146.131 984.625 146.102 984.825 146.156ZM1010.81 191.161C1010.75 191.361 1010.62 191.532 1010.44 191.635C1010.26 191.739 1010.05 191.767 1009.85 191.713L975.112 182.405C974.912 182.351 974.741 182.22 974.637 182.041C974.534 181.861 974.505 181.648 974.559 181.448L982.444 152.019L1018.69 161.732L1017.64 165.647L1008.21 175.085L995.773 171.753C995.573 171.699 995.359 171.728 995.18 171.831C995 171.935 994.869 172.106 994.816 172.306L992.387 181.368C992.334 181.569 992.362 181.782 992.465 181.961C992.569 182.141 992.74 182.272 992.94 182.326L1001.26 184.556C1001.08 185.056 1001.08 185.604 1001.25 186.108C1001.42 186.612 1001.76 187.043 1002.2 187.33C1002.65 187.617 1003.19 187.742 1003.72 187.686C1004.25 187.63 1004.74 187.395 1005.12 187.02L1006.61 185.529L1009.14 185.022C1009.29 184.991 1009.43 184.916 1009.54 184.806L1013.6 180.75L1010.81 191.161ZM1022.26 169.882L1021.7 170.435L1018.38 167.117L1018.94 166.564C1019.38 166.124 1019.97 165.876 1020.6 165.876C1021.22 165.876 1021.82 166.123 1022.26 166.563C1022.7 167.003 1022.94 167.6 1022.94 168.222C1022.94 168.845 1022.7 169.442 1022.26 169.882Z" fill="#8F8953"/>
</g>
<defs>
<clipPath id="clip0_177_1116">
<rect width="50" height="50" fill="white" transform="translate(0 12.9505) scale(1.00074) rotate(-15)"/>
</clipPath>
<clipPath id="clip1_177_1116">
<rect width="50" height="50" fill="white" transform="translate(982.668 139.103) scale(1.00074) rotate(15)"/>
</clipPath>
</defs>
</svg>
