<svg width="103" height="84" viewBox="0 0 103 84" fill="none" xmlns="http://www.w3.org/2000/svg">
<path d="M2.15634 33.7667C7.62691 14.2023 21.1225 0 34.2409 0C35.2946 0 36.3472 0.0917139 37.3727 0.273059C37.9543 0.375196 38.4629 0.717043 38.7777 1.21314C39.0914 1.71236 39.1799 2.31893 39.0205 2.88589L36.3201 12.5451C36.0596 13.4779 35.1601 14.1085 34.2253 14.0657L34.0106 14.0616C29.1455 14.0616 20.2544 21.3529 15.7218 37.5583C15.5425 38.2013 15.3727 38.859 15.209 39.5447C20.2971 37.0267 26.367 36.4441 31.8636 37.9752C44.2639 41.4447 51.5281 54.3536 48.0617 66.7517C45.2519 76.7976 36.0106 83.8159 25.5884 83.8159C23.4654 83.8159 21.3456 83.523 19.2872 82.9467C11.11 80.6611 4.96198 73.8721 1.97499 63.8346C-0.721214 54.7788 -0.653475 43.8199 2.15634 33.7667Z" fill="#E5EAFF"/>
<path d="M88.3176 0.00292972C89.3692 0.00292972 90.4229 0.0925594 91.4474 0.273905C92.0279 0.373957 92.5375 0.717888 92.8512 1.21398C93.1649 1.7132 93.2535 2.31977 93.0951 2.88674L90.3937 12.546C90.1331 13.4788 89.2504 14.1093 88.2988 14.0666L88.0862 14.0624C83.2212 14.0624 74.329 21.3537 69.7964 37.5591C69.6161 38.2063 69.4462 38.864 69.2836 39.5456C74.3738 37.0276 80.4416 36.445 85.9382 37.976C98.3364 41.4455 105.603 54.3544 102.134 66.7526C99.3244 76.7985 90.0831 83.8167 79.661 83.8167C77.538 83.8167 75.4181 83.5239 73.3587 82.9475C65.1825 80.662 59.0345 73.873 56.0465 63.8354C53.3513 54.7796 53.418 43.8197 56.2289 33.7655C61.7026 14.2031 75.1961 0.00292972 88.3176 0.00292972Z" fill="#E5EAFF"/>
</svg>
